<svg width="24" height="24" viewBox="0 0 24 24" fill="none" xmlns="http://www.w3.org/2000/svg">
<path d="M6.99988 22H3.99988C3.46944 22 2.96074 21.7893 2.58566 21.4142C2.21059 21.0391 1.99988 20.5304 1.99988 20V13C1.99988 12.4696 2.21059 11.9609 2.58566 11.5858C2.96074 11.2107 3.46944 11 3.99988 11H6.99988M13.9999 9V5C13.9999 4.20435 13.6838 3.44129 13.1212 2.87868C12.5586 2.31607 11.7955 2 10.9999 2L6.99988 11V22H18.2799C18.7622 22.0055 19.2303 21.8364 19.5978 21.524C19.9653 21.2116 20.2076 20.7769 20.2799 20.3L21.6599 11.3C21.7034 11.0134 21.6841 10.7207 21.6032 10.4423C21.5224 10.1638 21.382 9.90629 21.1917 9.68751C21.0015 9.46873 20.766 9.29393 20.5014 9.17522C20.2369 9.0565 19.9498 8.99672 19.6599 9H13.9999Z" stroke="url(#paint0_linear)" stroke-width="2" stroke-linecap="round" stroke-linejoin="round"/>
<defs>
<linearGradient id="paint0_linear" x1="25.5582" y1="-28.2556" x2="10.3646" y2="24.0189" gradientUnits="userSpaceOnUse">
<stop stop-color="#5498FF"/>
<stop offset="0.515625" stop-color="#428EFF"/>
<stop offset="1" stop-color="#297FFF"/>
</linearGradient>
</defs>
</svg>
