<svg width="24" height="24" viewBox="0 0 24 24" fill="none" xmlns="http://www.w3.org/2000/svg">
<path d="M7 22.0001H4C3.46957 22.0001 2.96086 21.7894 2.58579 21.4143C2.21071 21.0393 2 20.5306 2 20.0001V13.0001C2 12.4697 2.21071 11.961 2.58579 11.5859C2.96086 11.2108 3.46957 11.0001 4 11.0001H7M14 9.00012V5.00012C14 4.20447 13.6839 3.44141 13.1213 2.8788C12.5587 2.31619 11.7956 2.00012 11 2.00012L7 11.0001V22.0001H18.28C18.7623 22.0056 19.2304 21.8365 19.5979 21.5241C19.9654 21.2117 20.2077 20.777 20.28 20.3001L21.66 11.3001C21.7035 11.0135 21.6842 10.7208 21.6033 10.4424C21.5225 10.1639 21.3821 9.90642 21.1919 9.68764C21.0016 9.46886 20.7661 9.29405 20.5016 9.17534C20.2371 9.05663 19.9499 8.99684 19.66 9.00012H14Z" stroke="#A5B0C1" stroke-width="2" stroke-linecap="round" stroke-linejoin="round"/>
</svg>
